<svg xmlns="http://www.w3.org/2000/svg" viewBox="0 0 940 320" role="img" aria-label="VitalPower"><title>VitalPower</title><defs><clipPath id="heart-clip"><path d="M 175 248 C 162 237 112 204 108 174 C 101 133 145 113 175 140 C 205 113 249 133 242 174 C 238 204 188 237 175 248 Z"/></clipPath></defs><path d="M125 264 L75 264 C57 264 48 255 48 237 L48 150 C48 140 51 134 59 127 L167 35 C174 29 178 29 185 35 L289 125 C299 133 302 141 302 153 L302 218 " fill="none" stroke="#ffffff" stroke-width="22" stroke-linecap="round" stroke-linejoin="round"/><path d="M254 89 L254 55 C254 52 256 50 259 50 L278 50 C281 50 283 52 283 55 L283 113 Z " fill="#ffffff"/><path d="M175 242 C180 250 187 251 197 251 L361 251 " fill="none" stroke="#ffffff" stroke-width="15" stroke-linecap="round" stroke-linejoin="round"/><path d="M175 248 C162 237 112 204 108 174 C101 133 145 113 175 140 C205 113 249 133 242 174 C238 204 188 237 175 248 Z " fill="#58c9c1"/><path d="M105 181 L146 181 L159 153 L174 206 L190 168 L199 181 L245 181 " fill="none" stroke="#ffffff" stroke-width="7" stroke-linecap="round" stroke-linejoin="round" clip-path="url(#heart-clip)"/><path d="M365 224 L385 224 C388 224 390 226 390 229 L390 273 C390 276 388 278 385 278 L365 278 C345 278 335 266 335 251 C335 236 345 224 365 224 Z " fill="#ffffff"/><path d="M386 236 L407 236 M386 266 L407 266 " fill="none" stroke="#ffffff" stroke-width="9" stroke-linecap="round" stroke-linejoin="round"/><g transform="translate(440 117) scale(1)"><path fill="#ffffff" d="M65.82 4.004 L41.699 74.023 L23.828 74.023 L-0 4.004 L16.992 4.004 L31.592 52.734 C32.373 55.371 32.845 57.699 33.008 59.717 L33.301 59.717 C33.529 57.536 34.033 55.143 34.814 52.539 L49.316 4.004 Z M80.518 16.113 C77.913 16.113 75.781 15.34 74.121 13.794 C72.461 12.248 71.631 10.352 71.631 8.105 C71.631 5.794 72.461 3.906 74.121 2.441 C75.781 0.977 77.913 0.244 80.518 0.244 C83.154 0.244 85.295 0.977 86.938 2.441 C88.582 3.906 89.404 5.794 89.404 8.105 C89.404 10.449 88.582 12.37 86.938 13.867 C85.295 15.365 83.154 16.113 80.518 16.113 Z M88.135 74.023 L72.705 74.023 L72.705 24.023 L88.135 24.023 Z M131.348 73.438 C129.069 74.642 125.635 75.244 121.045 75.244 C110.173 75.244 104.736 69.596 104.736 58.301 L104.736 35.4 L96.631 35.4 L96.631 24.023 L104.736 24.023 L104.736 13.232 L120.117 8.838 L120.117 24.023 L131.348 24.023 L131.348 35.4 L120.117 35.4 L120.117 55.615 C120.117 60.824 122.184 63.428 126.318 63.428 C127.946 63.428 129.622 62.956 131.348 62.012 Z M181.641 74.023 L167.041 74.023 L167.041 66.846 L166.846 66.846 C163.493 72.445 158.529 75.244 151.953 75.244 C147.103 75.244 143.286 73.869 140.503 71.118 C137.72 68.368 136.328 64.697 136.328 60.107 C136.328 50.407 142.074 44.808 153.565 43.311 L167.139 41.504 C167.139 36.035 164.176 33.301 158.252 33.301 C152.295 33.301 146.631 35.075 141.26 38.623 L141.26 27.002 C143.408 25.895 146.346 24.919 150.073 24.072 C153.8 23.226 157.194 22.803 160.254 22.803 C174.512 22.803 181.641 29.915 181.641 44.141 Z M167.139 53.711 L167.139 50.342 L158.057 51.514 C153.044 52.165 150.537 54.427 150.537 58.301 C150.537 60.059 151.148 61.499 152.368 62.622 C153.589 63.745 155.241 64.307 157.324 64.307 C160.221 64.307 162.581 63.306 164.404 61.304 C166.227 59.302 167.139 56.771 167.139 53.711 Z M209.277 74.023 L193.848 74.023 L193.848 -0 L209.277 -0 Z "/><path fill="#58c9c1" d="M228.049 49.902 L228.049 74.023 L212.277 74.023 L212.277 4.004 L236.984 4.004 C254.628 4.004 263.449 11.442 263.449 26.318 C263.449 33.35 260.918 39.038 255.856 43.384 C250.795 47.729 244.032 49.902 235.568 49.902 Z M228.049 16.113 L228.049 37.939 L234.25 37.939 C242.648 37.939 246.848 34.261 246.848 26.904 C246.848 19.71 242.648 16.113 234.25 16.113 Z M293.039 75.244 C284.706 75.244 278.155 72.909 273.386 68.237 C268.617 63.566 266.232 57.227 266.232 49.219 C266.232 40.951 268.706 34.481 273.654 29.81 C278.602 25.138 285.292 22.803 293.723 22.803 C302.023 22.803 308.534 25.138 313.254 29.81 C317.974 34.481 320.334 40.658 320.334 48.34 C320.334 56.641 317.901 63.2 313.034 68.018 C308.168 72.835 301.503 75.244 293.039 75.244 Z M293.43 34.619 C289.784 34.619 286.952 35.872 284.934 38.379 C282.915 40.885 281.906 44.434 281.906 49.023 C281.906 58.626 285.78 63.428 293.527 63.428 C300.917 63.428 304.611 58.496 304.611 48.633 C304.611 39.29 300.884 34.619 293.43 34.619 Z M402.756 24.023 L388.352 74.023 L372.141 74.023 L364.768 44.727 C364.279 42.773 364.003 40.641 363.938 38.33 L363.645 38.33 C363.417 40.869 363.091 42.936 362.668 44.531 L354.758 74.023 L338.742 74.023 L324.631 24.023 L340.354 24.023 L347.238 56.641 C347.564 58.171 347.808 60.026 347.971 62.207 L348.264 62.207 C348.426 59.928 348.719 58.008 349.143 56.445 L357.736 24.023 L372.434 24.023 L380.148 56.641 C380.344 57.454 380.572 59.342 380.832 62.305 L381.174 62.305 C381.337 60.417 381.597 58.529 381.955 56.641 L388.449 24.023 Z M454.514 53.418 L421.897 53.418 C422.417 60.677 426.991 64.307 435.617 64.307 C441.119 64.307 445.953 63.005 450.119 60.4 L450.119 71.533 C445.497 74.007 439.491 75.244 432.102 75.244 C424.029 75.244 417.762 73.006 413.303 68.53 C408.843 64.054 406.613 57.813 406.613 49.805 C406.613 41.504 409.022 34.928 413.84 30.078 C418.658 25.228 424.582 22.803 431.613 22.803 C438.905 22.803 444.545 24.967 448.532 29.297 C452.52 33.626 454.514 39.502 454.514 46.924 Z M440.207 43.945 C440.207 36.784 437.31 33.203 431.516 33.203 C429.042 33.203 426.901 34.229 425.095 36.279 C423.288 38.33 422.19 40.885 421.799 43.945 Z M496.311 37.939 C494.455 36.93 492.29 36.426 489.816 36.426 C486.464 36.426 483.843 37.655 481.955 40.112 C480.067 42.57 479.123 45.915 479.123 50.146 L479.123 74.023 L463.693 74.023 L463.693 24.023 L479.123 24.023 L479.123 33.301 L479.318 33.301 C481.76 26.53 486.154 23.145 492.502 23.145 C494.13 23.145 495.399 23.34 496.311 23.73 Z "/></g></svg>